# xmcd CD database file
#
# Track frame offsets:
#	150
#	17870
#	38540
#	54672
#
# Disc length: 1048 seconds
#
# Revision: 1
# Processed by: cddbd v1.5.2PL0 Copyright (c) Steve Scherf et al.
# Submitted via: CDex 1.70beta2
#
DISCID=29041604
DTITLE=ERIC CLAPTON - My Father's Eyes(Single CD)
DYEAR=1998
DGENRE=Blues
TTITLE0=Change The World
TTITLE1=My Father's Eyes
TTITLE2=Theme From A Movie That Never Happened(Orchestral)
TTITLE3=Inside Of Me(Instrumental Remix)
EXTD=YEAR: 1998
EXTT0=
EXTT1=
EXTT2=
EXTT3=
PLAYORDER=
